HIERARCHY
ROOT Hips
{
	OFFSET 0.000000 0.000000 0.000000
	CHANNELS 6 Xposition Yposition Zposition Zrotation Yrotation Xrotation 
	JOINT LowerBack
	{
		OFFSET 0.000000 0.000000 0.000000
		CHANNELS 3 Zrotation Yrotation Xrotation
		JOINT Spine
		{
			OFFSET 0.028270 2.035590 -0.193380
			CHANNELS 3 Zrotation Yrotation Xrotation
			JOINT Spine1
			{
				OFFSET 0.056720 2.048850 -0.042750
				CHANNELS 3 Zrotation Yrotation Xrotation
				JOINT Neck
				{
					OFFSET 0.000000 0.000000 0.000000
					CHANNELS 3 Zrotation Yrotation Xrotation
					JOINT Neck1
					{
						OFFSET -0.054170 1.746240 0.172020
						CHANNELS 3 Zrotation Yrotation Xrotation
						JOINT Head
						{
							OFFSET 0.104070 1.761360 -0.123970
							CHANNELS 3 Zrotation Yrotation Xrotation
							End Site
							{
								OFFSET 0.000000 0.000000 0.000000
							}
						}
					}
				}
				JOINT LeftShoulder
				{
					OFFSET 0.000000 0.000000 0.000000
					CHANNELS 3 Zrotation Yrotation Xrotation
					JOINT LeftArm
					{
						OFFSET 3.362410 1.200890 -0.311210
						CHANNELS 3 Zrotation Yrotation Xrotation
						JOINT LeftForeArm
						{
							OFFSET 4.983000 -0.000000 -0.000000
							CHANNELS 3 Zrotation Yrotation Xrotation
							JOINT LeftHand
							{
								OFFSET 3.483560 -0.000000 -0.000000
								CHANNELS 3 Zrotation Yrotation Xrotation
								JOINT LeftFingerBase
								{
									OFFSET 0.000000 0.000000 0.000000
									CHANNELS 3 Zrotation Yrotation Xrotation
									JOINT LeftHandIndex1
									{
										OFFSET 0.715260 -0.000000 -0.000000
										CHANNELS 3 Zrotation Yrotation Xrotation
										End Site
										{
											OFFSET 0.000000 0.000000 0.000000
										}
									}
								}
								JOINT LThumb
								{
									OFFSET 0.000000 0.000000 0.000000
									CHANNELS 3 Zrotation Yrotation Xrotation
									End Site
									{
										OFFSET 0.000000 0.000000 0.000000
									}
								}
							}
						}
					}
				}
				JOINT RightShoulder
				{
					OFFSET 0.000000 0.000000 0.000000
					CHANNELS 3 Zrotation Yrotation Xrotation
					JOINT RightArm
					{
						OFFSET -3.136600 1.374050 -0.404650
						CHANNELS 3 Zrotation Yrotation Xrotation
						JOINT RightForeArm
						{
							OFFSET -5.241900 -0.000000 -0.000000
							CHANNELS 3 Zrotation Yrotation Xrotation
							JOINT RightHand
							{
								OFFSET -3.444170 -0.000000 -0.000000
								CHANNELS 3 Zrotation Yrotation Xrotation
								JOINT RightFingerBase
								{
									OFFSET 0.000000 0.000000 0.000000
									CHANNELS 3 Zrotation Yrotation Xrotation
									JOINT RightHandIndex1
									{
										OFFSET -0.622530 -0.000000 -0.000000
										CHANNELS 3 Zrotation Yrotation Xrotation
										End Site
										{
											OFFSET 0.000000 0.000000 0.000000
										}
									}
								}
								JOINT RThumb
								{
									OFFSET 0.000000 0.000000 0.000000
									CHANNELS 3 Zrotation Yrotation Xrotation
									End Site
									{
										OFFSET 0.000000 0.000000 0.000000
									}
								}
							}
						}
					}
				}
			}
		}
	}
}
}
MOTION
Frames: 15
Frame Time: 0.008333
4.091769 17.300500 -0.201368 162.560986 -78.606535 -152.460615 -2.723255 -1.621259 -5.705081 -1.229768 -1.673261 -3.280593 -6.513679 -1.716505 3.341017 9.428959 -14.409004 -9.158714 -3.209404 -0.247220 -0.359764 0.000000 0.000000 0.000000 -0.439682 19.359024 0.830387 -68.078754 13.111043 -29.406959 -3.432558 -17.291845 0.019769 18.984386 -4.231386 -0.706966 -0.127583 -0.029413 -0.000000 0.000000 0.000000 0.000000 0.000000 0.000000 0.000000 15.060645 -10.253775 -1.766432 70.488136 -2.386171 -20.789148 1.326778 57.357876 -0.023871 -15.220182 13.119434 -1.820473 0.199837 -0.282364 -0.000000 0.000000 0.000000 0.000000 0.000000 0.000000 0.000000 
4.104524 17.306917 -0.235621 161.335347 -78.502761 -151.563867 -2.804785 -1.578920 -5.561505 -1.244191 -1.620494 -3.240731 -6.491101 -1.661768 3.369021 9.208673 -14.373651 -9.125387 -3.224681 -0.248550 -0.356500 0.000000 0.000000 0.000000 -0.588886 19.720814 0.804049 -68.222675 13.439262 -29.641308 -3.456344 -16.986643 0.020806 18.732517 -4.276193 -0.704463 -0.129300 -0.032305 -0.000000 0.000000 0.000000 0.000000 0.000000 0.000000 0.000000 14.949981 -10.179800 -1.822883 70.261278 -2.149624 -20.846773 1.305724 57.575456 -0.025123 -15.324766 13.168608 -1.840572 0.200889 -0.286997 -0.000000 0.000000 0.000000 0.000000 0.000000 0.000000 0.000000 
4.118552 17.313188 -0.267915 159.929956 -78.514398 -150.413625 -2.885881 -1.549498 -5.428539 -1.257201 -1.580650 -3.203335 -6.465781 -1.620370 3.398088 9.002945 -14.350006 -9.119057 -3.234553 -0.249089 -0.360167 0.000000 0.000000 0.000000 -0.724894 20.060353 0.787263 -68.348706 13.680531 -29.883133 -3.472497 -16.795586 0.021704 18.522590 -4.352533 -0.708759 -0.130575 -0.034620 -0.000000 0.000000 0.000000 0.000000 0.000000 0.000000 0.000000 14.828855 -10.121841 -1.869124 70.038035 -1.880539 -20.934054 1.281242 57.811960 -0.026539 -15.444636 13.219569 -1.862772 0.201833 -0.291853 -0.000000 0.000000 0.000000 0.000000 0.000000 0.000000 0.000000 
4.133688 17.319542 -0.298592 158.286491 -78.642757 -148.943792 -2.971445 -1.532368 -5.310791 -1.269900 -1.552892 -3.170755 -6.438229 -1.591694 3.422487 8.811374 -14.336694 -9.131754 -3.239758 -0.249035 -0.368359 0.000000 0.000000 0.000000 -0.849991 20.337775 0.780110 -68.458715 13.878159 -30.117332 -3.481208 -16.762462 0.022489 18.360206 -4.443372 -0.716954 -0.131408 -0.036529 -0.000000 0.000000 0.000000 0.000000 0.000000 0.000000 0.000000 14.694969 -10.079269 -1.901995 69.825751 -1.597476 -21.058224 1.254231 58.067356 -0.028076 -15.573602 13.271296 -1.886473 0.202664 -0.296843 -0.000000 0.000000 0.000000 0.000000 0.000000 0.000000 0.000000 
4.149896 17.326146 -0.327972 156.347107 -78.883554 -147.089645 -3.066564 -1.525638 -5.212506 -1.283952 -1.535113 -3.143021 -6.409725 -1.573526 3.446301 8.640587 -14.328862 -9.163668 -3.241128 -0.248460 -0.381163 0.000000 0.000000 0.000000 -0.949440 20.574214 0.781893 -68.551662 13.991749 -30.350956 -3.482832 -16.850278 0.023136 18.250751 -4.553649 -0.730248 -0.131812 -0.037871 -0.000000 0.000000 0.000000 0.000000 0.000000 0.000000 0.000000 14.559972 -10.046274 -1.924181 69.617895 -1.319884 -21.216902 1.224520 58.354117 -0.029734 -15.714023 13.317505 -1.910877 0.203425 -0.301853 -0.000000 0.000000 0.000000 0.000000 0.000000 0.000000 0.000000 
4.167280 17.333191 -0.356285 154.041426 -79.228686 -144.775213 -3.173093 -1.527240 -5.138507 -1.300286 -1.525283 -3.121379 -6.381264 -1.563863 3.468810 8.492724 -14.319661 -9.210602 -3.239731 -0.247517 -0.397411 0.000000 0.000000 0.000000 -1.016940 20.765777 0.792236 -68.629926 14.019506 -30.576426 -3.477726 -17.055581 0.023635 18.194005 -4.677364 -0.747842 -0.131805 -0.038647 -0.000000 0.000000 0.000000 0.000000 0.000000 0.000000 0.000000 14.428652 -10.015327 -1.935965 69.412224 -1.067688 -21.411236 1.192460 58.678615 -0.031480 -15.862701 13.354193 -1.934979 0.204119 -0.306781 -0.000000 0.000000 0.000000 0.000000 0.000000 0.000000 0.000000 
4.185670 17.340839 -0.383684 151.290059 -79.663884 -141.911104 -3.289600 -1.534779 -5.095182 -1.318927 -1.521290 -3.107452 -6.352739 -1.560652 3.488880 8.366331 -14.312594 -9.268900 -3.235567 -0.246267 -0.416017 0.000000 0.000000 0.000000 -1.056424 20.899193 0.809906 -68.695739 13.978632 -30.771936 -3.466607 -17.393999 0.023984 18.180394 -4.798907 -0.766834 -0.131458 -0.038950 -0.000000 0.000000 0.000000 0.000000 0.000000 0.000000 0.000000 14.299128 -9.990310 -1.936222 69.207729 -0.844523 -21.634207 1.159193 59.034388 -0.033273 -16.013815 13.379827 -1.957882 0.204773 -0.311557 0.000000 0.000000 0.000000 0.000000 0.000000 0.000000 0.000000 
4.205183 17.349105 -0.410157 148.008770 -80.169963 -138.409045 -3.412083 -1.545185 -5.086133 -1.339690 -1.520416 -3.102089 -6.324440 -1.561115 3.506643 8.260708 -14.302520 -9.336389 -3.229074 -0.244773 -0.436433 0.000000 0.000000 0.000000 -1.066358 20.979505 0.834289 -68.753399 13.864226 -30.926312 -3.449876 -17.855903 0.024158 18.200361 -4.911763 -0.785926 -0.130824 -0.038771 -0.000000 0.000000 0.000000 0.000000 0.000000 0.000000 0.000000 14.172184 -9.964830 -1.925460 68.999398 -0.661276 -21.881289 1.125107 59.423569 -0.035086 -16.163660 13.391854 -1.978784 0.205397 -0.316133 0.000000 0.000000 0.000000 0.000000 0.000000 0.000000 0.000000 
4.225675 17.357968 -0.435587 144.109564 -80.720664 -134.175407 -3.533578 -1.555024 -5.114300 -1.361543 -1.519689 -3.106135 -6.295483 -1.562223 3.521721 8.171723 -14.295365 -9.412349 -3.219528 -0.242983 -0.458442 0.000000 0.000000 0.000000 -1.055221 21.003048 0.864106 -68.806391 13.689528 -31.018443 -3.428040 -18.449650 0.024147 18.238902 -5.002193 -0.802315 -0.130004 -0.038175 -0.000000 0.000000 0.000000 0.000000 0.000000 0.000000 0.000000 14.042047 -9.944233 -1.902588 68.784601 -0.511337 -22.141256 1.091292 59.835315 -0.036877 -16.306609 13.391072 -1.996887 0.206024 -0.320508 0.000000 0.000000 0.000000 0.000000 0.000000 0.000000 0.000000 
4.247403 17.367278 -0.459622 139.512186 -81.286090 -129.131857 -3.647863 -1.559831 -5.178981 -1.384161 -1.514927 -3.119555 -6.266178 -1.559611 3.535221 8.097601 -14.273231 -9.496644 -3.207683 -0.240932 -0.482227 0.000000 0.000000 0.000000 -1.014829 20.996122 0.899906 -68.862222 13.425073 -31.052633 -3.400959 -19.134427 0.023936 18.289886 -5.082278 -0.817706 -0.129029 -0.037039 -0.000000 0.000000 0.000000 0.000000 0.000000 0.000000 0.000000 13.908814 -9.906937 -1.869453 68.555636 -0.416747 -22.417607 1.057100 60.283799 -0.038653 -16.439099 13.374651 -2.011489 0.206617 -0.324707 0.000000 0.000000 0.000000 0.000000 0.000000 0.000000 0.000000 
4.270449 17.376800 -0.481864 134.159023 -81.829117 -123.222426 -3.749041 -1.555148 -5.278060 -1.406691 -1.501821 -3.142494 -6.235271 -1.548866 3.545996 8.032355 -14.237184 -9.589931 -3.192772 -0.238523 -0.508050 0.000000 0.000000 0.000000 -0.953138 20.961152 0.941113 -68.927424 13.081064 -31.016327 -3.368828 -19.910165 0.023521 18.339602 -5.146845 -0.830696 -0.128009 -0.035392 -0.000000 0.000000 0.000000 0.000000 0.000000 0.000000 0.000000 13.764021 -9.851660 -1.824753 68.310075 -0.373413 -22.704638 1.023024 60.763729 -0.040398 -16.555719 13.343810 -2.021890 0.207188 -0.328811 0.000000 0.000000 0.000000 0.000000 0.000000 0.000000 0.000000 
4.294843 17.386305 -0.501868 128.054677 -82.309170 -116.455419 -3.833702 -1.538566 -5.407310 -1.427983 -1.477869 -3.174349 -6.200141 -1.527433 3.553766 7.967783 -14.191677 -9.694936 -3.173025 -0.235540 -0.536764 0.000000 0.000000 0.000000 -0.885217 20.906531 0.987256 -69.006155 12.668736 -30.909370 -3.331937 -20.778770 0.022908 18.370914 -5.195502 -0.840285 -0.127080 -0.033240 -0.000000 0.000000 0.000000 0.000000 0.000000 0.000000 0.000000 13.594071 -9.781401 -1.767522 68.048331 -0.363819 -22.991816 0.989559 61.261629 -0.042104 -16.651772 13.302317 -2.028094 0.207738 -0.332949 0.000000 0.000000 0.000000 0.000000 0.000000 0.000000 0.000000 
4.320962 17.395474 -0.519138 121.272225 -82.691320 -108.915822 -3.902484 -1.507216 -5.557142 -1.447561 -1.439760 -3.213787 -6.158746 -1.491975 3.556462 7.897413 -14.144799 -9.814040 -3.147140 -0.231804 -0.569178 0.000000 0.000000 0.000000 -0.821841 20.828588 1.037937 -69.103939 12.206075 -30.718011 -3.289647 -21.749845 0.022100 18.383520 -5.219083 -0.845173 -0.126343 -0.030621 -0.000000 0.000000 0.000000 0.000000 0.000000 0.000000 0.000000 13.388948 -9.702357 -1.695633 67.770683 -0.376031 -23.276717 0.957033 61.769901 -0.043773 -16.723958 13.256612 -2.030698 0.208261 -0.337286 0.000000 0.000000 0.000000 0.000000 0.000000 0.000000 0.000000 
4.348938 17.404008 -0.533296 113.987503 -82.950841 -100.789654 -3.957328 -1.461908 -5.717047 -1.464614 -1.387978 -3.258466 -6.109371 -1.443022 3.554489 7.816748 -14.087928 -9.949807 -3.114943 -0.227212 -0.606364 0.000000 0.000000 0.000000 -0.764582 20.747291 1.094239 -69.225696 11.681966 -30.458675 -3.241769 -22.798376 0.021114 18.374855 -5.235101 -0.847860 -0.125867 -0.027440 -0.000000 0.000000 0.000000 0.000000 0.000000 0.000000 0.000000 13.143616 -9.604865 -1.610169 67.475184 -0.412238 -23.563401 0.924607 62.293507 -0.045441 -16.770934 13.207660 -2.029804 0.208696 -0.341952 0.000000 0.000000 0.000000 0.000000 0.000000 0.000000 0.000000 
4.379057 17.411722 -0.544276 106.462141 -83.073864 -92.354784 -4.000042 -1.406187 -5.873233 -1.477418 -1.325828 -3.305321 -6.049255 -1.383997 3.546509 7.719972 -14.039956 -10.105855 -3.074434 -0.221513 -0.649548 0.000000 0.000000 0.000000 -0.731145 20.653655 1.155746 -69.369375 11.126651 -30.126545 -3.187852 -23.947804 0.019961 18.344415 -5.234711 -0.846945 -0.125755 -0.023754 -0.000000 0.000000 0.000000 0.000000 0.000000 0.000000 0.000000 12.848083 -9.509941 -1.509759 67.167594 -0.439856 -23.843143 0.892766 62.812178 -0.047119 -16.791619 13.163306 -2.026511 0.209020 -0.347108 0.000000 0.000000 0.000000 0.000000 0.000000 0.000000 0.000000 
